<svg version="1.1" width="446" height="70" viewBox="0 0 446 70" xmlns="http://www.w3.org/2000/svg" xmlns:xlink="http://www.w3.org/1999/xlink" fill="none" overflow="hidden"><path d=" M 47.6367 52 L 38.4609 52 L 33.9258 39.168 L 14.0977 39.168 L 9.73828 52 L 0.597656 52 L 19.4766 1.58594 L 28.8984 1.58594 L 47.6367 52 Z M 31.7109 32.3477 L 24.7148 12.2383 C 24.5039 11.582 24.2812 10.5273 24.0469 9.07422 L 23.9062 9.07422 C 23.6953 10.4102 23.4609 11.4648 23.2031 12.2383 L 16.2773 32.3477 L 31.7109 32.3477 Z M 78.8217 19.4102 L 59.3803 45.6367 L 78.7514 45.6367 L 78.7514 52 L 47.9545 52 L 47.9545 48.9414 L 67.8178 22.3633 L 49.853 22.3633 L 49.853 16 L 78.8217 16 L 78.8217 19.4102 Z M 115.667 52 L 107.511 52 L 107.511 46.3047 L 107.37 46.3047 C 105.003 50.6641 101.323 52.8438 96.3309 52.8438 C 87.8231 52.8438 83.5692 47.7344 83.5692 37.5156 L 83.5692 16 L 91.7255 16 L 91.7255 36.6719 C 91.7255 43.1406 94.2216 46.375 99.2138 46.375 C 101.628 46.375 103.608 45.4844 105.155 43.7031 C 106.725 41.9219 107.511 39.5898 107.511 36.707 L 107.511 16 L 115.667 16 L 115.667 52 Z M 145.762 23.7695 C 144.778 22.9961 143.36 22.6094 141.508 22.6094 C 139.094 22.6094 137.078 23.6992 135.461 25.8789 C 133.844 28.0586 133.035 31.0234 133.035 34.7734 L 133.035 52 L 124.879 52 L 124.879 16 L 133.035 16 L 133.035 23.418 L 133.176 23.418 C 133.973 20.8867 135.192 18.918 136.832 17.5117 C 138.496 16.082 140.348 15.3672 142.387 15.3672 C 143.864 15.3672 144.989 15.5898 145.762 16.0352 L 145.762 23.7695 Z M 180.568 36.2148 L 156.029 36.2148 C 156.123 39.543 157.142 42.1094 159.088 43.9141 C 161.056 45.7188 163.752 46.6211 167.174 46.6211 C 171.017 46.6211 174.545 45.4727 177.756 43.1758 L 177.756 49.75 C 174.474 51.8125 170.138 52.8438 164.748 52.8438 C 159.451 52.8438 155.291 51.2148 152.267 47.957 C 149.267 44.6758 147.767 40.0703 147.767 34.1406 C 147.767 28.5391 149.42 23.9805 152.724 20.4648 C 156.053 16.9258 160.178 15.1562 165.099 15.1562 C 170.021 15.1562 173.83 16.7383 176.525 19.9023 C 179.22 23.0664 180.568 27.4609 180.568 33.0859 L 180.568 36.2148 Z M 172.693 30.4492 C 172.67 27.5195 171.978 25.2461 170.619 23.6289 C 169.26 21.9883 167.385 21.168 164.994 21.168 C 162.65 21.168 160.658 22.0234 159.017 23.7344 C 157.4 25.4453 156.404 27.6836 156.029 30.4492 L 172.693 30.4492 Z M 206.2 52 L 206.2 1.58594 L 220.755 1.58594 C 239.34 1.58594 248.633 9.77734 248.633 26.1602 C 248.633 33.9414 246.055 40.1992 240.899 44.9336 C 235.743 49.6445 228.829 52 220.157 52 L 206.2 52 Z M 214.532 8.6875 L 214.532 44.9336 L 221.212 44.9336 C 227.094 44.9336 231.665 43.3164 234.923 40.082 C 238.204 36.8477 239.844 32.2773 239.844 26.3711 C 239.844 14.582 233.739 8.6875 221.528 8.6875 L 214.532 8.6875 Z M 286.006 36.2148 L 261.467 36.2148 C 261.561 39.543 262.58 42.1094 264.525 43.9141 C 266.494 45.7188 269.19 46.6211 272.611 46.6211 C 276.455 46.6211 279.983 45.4727 283.193 43.1758 L 283.193 49.75 C 279.912 51.8125 275.576 52.8438 270.186 52.8438 C 264.889 52.8438 260.729 51.2148 257.705 47.957 C 254.705 44.6758 253.205 40.0703 253.205 34.1406 C 253.205 28.5391 254.858 23.9805 258.162 20.4648 C 261.49 16.9258 265.615 15.1562 270.537 15.1562 C 275.459 15.1562 279.268 16.7383 281.963 19.9023 C 284.658 23.0664 286.006 27.4609 286.006 33.0859 L 286.006 36.2148 Z M 278.131 30.4492 C 278.108 27.5195 277.416 25.2461 276.057 23.6289 C 274.697 21.9883 272.822 21.168 270.432 21.168 C 268.088 21.168 266.096 22.0234 264.455 23.7344 C 262.838 25.4453 261.842 27.6836 261.467 30.4492 L 278.131 30.4492 Z M 323.343 16 L 309.421 52 L 300.597 52 L 287.343 16 L 296.203 16 L 304.183 41.1719 C 304.793 43.0234 305.168 44.6406 305.308 46.0234 L 305.414 46.0234 C 305.625 44.2891 305.953 42.7188 306.398 41.3125 L 314.765 16 L 323.343 16 Z M 349.149 52.8438 C 341.884 52.8438 336.06 50.4883 331.677 45.7773 C 327.317 41.0664 325.138 34.9375 325.138 27.3906 C 325.138 19.2812 327.364 12.8125 331.817 7.98438 C 336.27 3.15625 342.317 0.742188 349.958 0.742188 C 357.036 0.742188 362.731 3.08594 367.044 7.77344 C 371.38 12.4609 373.548 18.5898 373.548 26.1602 C 373.548 34.3867 371.333 40.8906 366.903 45.6719 C 362.474 50.4531 356.556 52.8438 349.149 52.8438 Z M 349.536 8.08984 C 344.919 8.08984 341.157 9.8125 338.251 13.2578 C 335.368 16.7031 333.927 21.2383 333.927 26.8633 C 333.927 32.4648 335.333 36.9766 338.145 40.3984 C 340.958 43.8203 344.638 45.5312 349.185 45.5312 C 354.013 45.5312 357.821 43.9023 360.61 40.6445 C 363.399 37.3867 364.794 32.8281 364.794 26.9688 C 364.794 20.9453 363.435 16.293 360.716 13.0117 C 358.02 9.73047 354.294 8.08984 349.536 8.08984 Z M 388.737 46.6914 L 388.596 46.6914 L 388.596 68.5586 L 380.44 68.5586 L 380.44 16 L 388.596 16 L 388.596 22.3281 L 388.737 22.3281 C 391.526 17.5469 395.604 15.1562 400.971 15.1562 C 405.541 15.1562 409.104 16.7617 411.659 19.9727 C 414.213 23.1836 415.491 27.4961 415.491 32.9102 C 415.491 38.9102 414.049 43.7148 411.166 47.3242 C 408.284 50.9336 404.346 52.7383 399.354 52.7383 C 394.76 52.7383 391.221 50.7227 388.737 46.6914 Z M 388.526 32.4883 L 388.526 36.9531 C 388.526 39.5781 389.358 41.8047 391.022 43.6328 C 392.709 45.4609 394.842 46.375 397.42 46.375 C 400.444 46.375 402.811 45.2031 404.522 42.8594 C 406.256 40.4922 407.123 37.1992 407.123 32.9805 C 407.123 29.4414 406.315 26.6758 404.698 24.6836 C 403.104 22.668 400.936 21.6602 398.194 21.6602 C 395.288 21.6602 392.944 22.6914 391.163 24.7539 C 389.405 26.8164 388.526 29.3945 388.526 32.4883 Z M 420.133 50.875 L 420.133 43.3164 C 423.18 45.6367 426.543 46.7969 430.223 46.7969 C 435.144 46.7969 437.605 45.3438 437.605 42.4375 C 437.605 41.6172 437.394 40.9258 436.973 40.3633 C 436.551 39.7773 435.976 39.2617 435.25 38.8164 C 434.547 38.3711 433.703 37.9727 432.719 37.6211 C 431.758 37.2695 430.68 36.8711 429.484 36.4258 C 428.008 35.8398 426.672 35.2188 425.476 34.5625 C 424.305 33.9062 423.32 33.168 422.523 32.3477 C 421.75 31.5039 421.164 30.5547 420.765 29.5 C 420.367 28.4453 420.168 27.2148 420.168 25.8086 C 420.168 24.0742 420.578 22.5508 421.398 21.2383 C 422.219 19.9023 423.32 18.7891 424.703 17.8984 C 426.086 16.9844 427.656 16.3047 429.414 15.8594 C 431.172 15.3906 432.988 15.1562 434.863 15.1562 C 438.191 15.1562 441.168 15.6602 443.793 16.668 L 443.793 23.8047 C 441.262 22.0703 438.355 21.2031 435.074 21.2031 C 434.043 21.2031 433.105 21.3086 432.262 21.5195 C 431.441 21.7305 430.738 22.0234 430.152 22.3984 C 429.566 22.7734 429.109 23.2305 428.781 23.7695 C 428.453 24.2852 428.289 24.8594 428.289 25.4922 C 428.289 26.2656 428.453 26.9219 428.781 27.4609 C 429.109 28 429.59 28.4805 430.223 28.9023 C 430.879 29.3008 431.652 29.6758 432.543 30.0273 C 433.457 30.3555 434.5 30.7188 435.672 31.1172 C 437.219 31.75 438.601 32.3945 439.82 33.0508 C 441.062 33.707 442.117 34.457 442.984 35.3008 C 443.851 36.1211 444.519 37.082 444.988 38.1836 C 445.457 39.2617 445.691 40.5508 445.691 42.0508 C 445.691 43.8789 445.269 45.4727 444.426 46.832 C 443.582 48.1914 442.457 49.3164 441.051 50.207 C 439.644 51.0977 438.015 51.7539 436.164 52.1758 C 434.336 52.6211 432.402 52.8438 430.363 52.8438 C 426.426 52.8438 423.015 52.1875 420.133 50.875 Z" fill="#0078D4"/></svg>