<svg version="1.1" width="118" height="19" viewBox="0 0 118 19" xmlns="http://www.w3.org/2000/svg" xmlns:xlink="http://www.w3.org/1999/xlink" fill="none" overflow="hidden"><path d=" M 12.5708 14 L 10.1494 14 L 8.95264 10.6138 L 3.72021 10.6138 L 2.56982 14 L 0.157715 14 L 5.13965 0.696289 L 7.62598 0.696289 L 12.5708 14 Z M 8.36816 8.81396 L 6.52197 3.50732 C 6.46631 3.33415 6.40755 3.05583 6.3457 2.67236 L 6.30859 2.67236 C 6.25293 3.0249 6.19108 3.30322 6.12305 3.50732 L 4.29541 8.81396 L 8.36816 8.81396 Z M 20.8002 5.3999 L 15.6698 12.3208 L 20.7816 12.3208 L 20.7816 14 L 12.6547 14 L 12.6547 13.1929 L 17.8964 6.1792 L 13.1556 6.1792 L 13.1556 4.5 L 20.8002 4.5 L 20.8002 5.3999 Z M 30.5232 14 L 28.3709 14 L 28.3709 12.4971 L 28.3337 12.4971 C 27.7091 13.6475 26.738 14.2227 25.4207 14.2227 C 23.1755 14.2227 22.053 12.8743 22.053 10.1777 L 22.053 4.5 L 24.2053 4.5 L 24.2053 9.95508 C 24.2053 11.6621 24.864 12.5156 26.1814 12.5156 C 26.8185 12.5156 27.3411 12.2806 27.7493 11.8105 C 28.1637 11.3405 28.3709 10.7251 28.3709 9.96436 L 28.3709 4.5 L 30.5232 4.5 L 30.5232 14 Z M 38.465 6.55029 C 38.2052 6.34619 37.831 6.24414 37.3424 6.24414 C 36.7054 6.24414 36.1735 6.53174 35.7467 7.10693 C 35.32 7.68213 35.1066 8.46452 35.1066 9.4541 L 35.1066 14 L 32.9542 14 L 32.9542 4.5 L 35.1066 4.5 L 35.1066 6.45752 L 35.1437 6.45752 C 35.354 5.78955 35.6756 5.27002 36.1085 4.89893 C 36.5477 4.52165 37.0363 4.33301 37.5744 4.33301 C 37.964 4.33301 38.2609 4.39176 38.465 4.50928 L 38.465 6.55029 Z M 47.4829 9.83447 L 41.0073 9.83447 C 41.0321 10.7127 41.3011 11.39 41.8145 11.8662 C 42.334 12.3424 43.0453 12.5806 43.9483 12.5806 C 44.9626 12.5806 45.8934 12.2775 46.7407 11.6714 L 46.7407 13.4062 C 45.8749 13.9505 44.7307 14.2227 43.3081 14.2227 C 41.9103 14.2227 40.8125 13.7928 40.0147 12.9331 C 39.223 12.0672 38.8272 10.8519 38.8272 9.28711 C 38.8272 7.80892 39.2632 6.60596 40.1353 5.67822 C 41.0135 4.7443 42.1021 4.27734 43.4009 4.27734 C 44.6997 4.27734 45.7048 4.69482 46.416 5.52979 C 47.1273 6.36475 47.4829 7.52441 47.4829 9.00879 L 47.4829 9.83447 Z M 45.4048 8.31299 C 45.3986 7.53988 45.2162 6.93994 44.8574 6.51318 C 44.4987 6.08024 44.0039 5.86377 43.3731 5.86377 C 42.7546 5.86377 42.2289 6.08952 41.7959 6.54102 C 41.3692 6.99251 41.1063 7.58317 41.0073 8.31299 L 45.4048 8.31299 Z M 54.2469 14 L 54.2469 0.696289 L 58.0877 0.696289 C 62.9923 0.696289 65.4446 2.85791 65.4446 7.18115 C 65.4446 9.23454 64.7643 10.8859 63.4036 12.1353 C 62.0429 13.3784 60.2184 14 57.93 14 L 54.2469 14 Z M 56.4456 2.57031 L 56.4456 12.1353 L 58.2083 12.1353 C 59.7607 12.1353 60.9667 11.7085 61.8264 10.855 C 62.6923 10.0015 63.1253 8.79541 63.1253 7.23682 C 63.1253 4.12581 61.5141 2.57031 58.2918 2.57031 L 56.4456 2.57031 Z M 75.3068 9.83447 L 68.8312 9.83447 C 68.8559 10.7127 69.125 11.39 69.6383 11.8662 C 70.1579 12.3424 70.8691 12.5806 71.7721 12.5806 C 72.7864 12.5806 73.7173 12.2775 74.5646 11.6714 L 74.5646 13.4062 C 73.6987 13.9505 72.5545 14.2227 71.132 14.2227 C 69.7342 14.2227 68.6364 13.7928 67.8385 12.9331 C 67.0469 12.0672 66.651 10.8519 66.651 9.28711 C 66.651 7.80892 67.0871 6.60596 67.9591 5.67822 C 68.8374 4.7443 69.9259 4.27734 71.2248 4.27734 C 72.5236 4.27734 73.5286 4.69482 74.2399 5.52979 C 74.9512 6.36475 75.3068 7.52441 75.3068 9.00879 L 75.3068 9.83447 Z M 73.2287 8.31299 C 73.2225 7.53988 73.04 6.93994 72.6813 6.51318 C 72.3226 6.08024 71.8278 5.86377 71.1969 5.86377 C 70.5784 5.86377 70.0527 6.08952 69.6198 6.54102 C 69.193 6.99251 68.9302 7.58317 68.8312 8.31299 L 73.2287 8.31299 Z M 85.1597 4.5 L 81.4859 14 L 79.1573 14 L 75.6597 4.5 L 77.9976 4.5 L 80.1036 11.1426 C 80.2644 11.6312 80.3633 12.0579 80.4004 12.4229 L 80.4283 12.4229 C 80.4839 11.9652 80.5705 11.5508 80.688 11.1797 L 82.896 4.5 L 85.1597 4.5 Z M 91.9697 14.2227 C 90.0523 14.2227 88.5154 13.6011 87.3588 12.3579 C 86.2084 11.1147 85.6332 9.4974 85.6332 7.50586 C 85.6332 5.36589 86.2208 3.65885 87.3959 2.38477 C 88.5711 1.11068 90.1668 0.473633 92.183 0.473633 C 94.0509 0.473633 95.5538 1.09212 96.6918 2.3291 C 97.836 3.56608 98.4081 5.18343 98.4081 7.18115 C 98.4081 9.35205 97.8237 11.0684 96.6547 12.3301 C 95.4858 13.5918 93.9241 14.2227 91.9697 14.2227 Z M 92.0717 2.4126 C 90.8533 2.4126 89.8606 2.86719 89.0937 3.77637 C 88.3329 4.68555 87.9526 5.88232 87.9526 7.3667 C 87.9526 8.84489 88.3237 10.0355 89.0658 10.9385 C 89.808 11.8415 90.7791 12.293 91.9789 12.293 C 93.253 12.293 94.2581 11.8631 94.9941 11.0034 C 95.7301 10.1437 96.0981 8.94076 96.0981 7.39453 C 96.0981 5.80501 95.7393 4.57731 95.0219 3.71143 C 94.3106 2.84554 93.3272 2.4126 92.0717 2.4126 Z M 102.416 12.5991 L 102.379 12.5991 L 102.379 18.3696 L 100.227 18.3696 L 100.227 4.5 L 102.379 4.5 L 102.379 6.16992 L 102.416 6.16992 C 103.152 4.9082 104.228 4.27734 105.645 4.27734 C 106.851 4.27734 107.791 4.70101 108.465 5.54834 C 109.139 6.39567 109.476 7.53369 109.476 8.9624 C 109.476 10.5457 109.096 11.8136 108.335 12.7661 C 107.575 13.7186 106.535 14.1948 105.218 14.1948 C 104.006 14.1948 103.072 13.6629 102.416 12.5991 Z M 102.361 8.85107 L 102.361 10.0293 C 102.361 10.722 102.58 11.3096 103.019 11.792 C 103.465 12.2744 104.027 12.5156 104.708 12.5156 C 105.506 12.5156 106.13 12.2064 106.582 11.5879 C 107.04 10.9632 107.268 10.0942 107.268 8.98096 C 107.268 8.04704 107.055 7.31722 106.628 6.7915 C 106.208 6.2596 105.636 5.99365 104.912 5.99365 C 104.145 5.99365 103.526 6.26579 103.056 6.81006 C 102.593 7.35433 102.361 8.03467 102.361 8.85107 Z M 110.701 13.7031 L 110.701 11.7085 C 111.505 12.3208 112.393 12.627 113.364 12.627 C 114.663 12.627 115.312 12.2435 115.312 11.4766 C 115.312 11.2601 115.257 11.0776 115.145 10.9292 C 115.034 10.7746 114.882 10.6385 114.691 10.521 C 114.505 10.4035 114.282 10.2983 114.023 10.2056 C 113.769 10.1128 113.485 10.0076 113.169 9.89014 C 112.779 9.73551 112.427 9.57161 112.112 9.39844 C 111.802 9.22526 111.542 9.03044 111.332 8.81396 C 111.128 8.59131 110.973 8.34082 110.868 8.0625 C 110.763 7.78418 110.711 7.45947 110.711 7.08838 C 110.711 6.6307 110.819 6.22868 111.035 5.88232 C 111.252 5.52979 111.542 5.236 111.907 5.00098 C 112.272 4.75977 112.687 4.5804 113.151 4.46289 C 113.614 4.33919 114.094 4.27734 114.589 4.27734 C 115.467 4.27734 116.252 4.41032 116.945 4.67627 L 116.945 6.55957 C 116.277 6.10189 115.51 5.87305 114.644 5.87305 C 114.372 5.87305 114.125 5.90088 113.902 5.95654 C 113.686 6.01221 113.5 6.08952 113.345 6.18848 C 113.191 6.28743 113.07 6.40804 112.984 6.55029 C 112.897 6.68636 112.854 6.83789 112.854 7.00488 C 112.854 7.20898 112.897 7.38216 112.984 7.52441 C 113.07 7.66667 113.197 7.79346 113.364 7.90479 C 113.537 8.00993 113.741 8.10889 113.976 8.20166 C 114.217 8.28825 114.493 8.38411 114.802 8.48926 C 115.21 8.65625 115.575 8.82633 115.897 8.99951 C 116.224 9.17269 116.503 9.37061 116.732 9.59326 C 116.96 9.80973 117.137 10.0633 117.26 10.354 C 117.384 10.6385 117.446 10.9787 117.446 11.3745 C 117.446 11.8569 117.335 12.2775 117.112 12.6362 C 116.889 12.995 116.592 13.2918 116.221 13.5269 C 115.85 13.7619 115.42 13.9351 114.932 14.0464 C 114.449 14.1639 113.939 14.2227 113.401 14.2227 C 112.362 14.2227 111.462 14.0495 110.701 13.7031 Z" fill="#FFFFFF"/></svg>