<svg version="1.1" width="96" height="96" viewBox="0 0 96 96" xmlns="http://www.w3.org/2000/svg" xmlns:xlink="http://www.w3.org/1999/xlink" fill="none" overflow="hidden"><defs><linearGradient x2="1" gradientUnits="userSpaceOnUse" id="paint0_linear" gradientTransform="matrix(5.8783e-15,82,-96,5.02105e-15,96,6)"><stop offset="0" stop-color="#FFFFFF"/><stop offset="1" stop-color="#FFFFFF" stop-opacity="0"/></linearGradient></defs><g id="DevOpsIconOverview96"><mask maskUnits="userSpaceOnUse" x="0" y="4" width="96" height="88" id="mask0"><path d=" M 20 0 C 17.7909 0 16 1.79102 16 4 L 16 28 L 4 28 C 1.79086 28 0 29.791 0 32 L 0 80 C 0 84.418 3.58172 88 8 88 L 88 88 C 92.4183 88 96 84.4512 96 80.0322 L 96 4 C 96 1.79102 94.2091 0 92 0 L 20 0 Z" id="Union" fill="#FFFFFF" transform="matrix(1,0,0,1,0,4)"/></mask><g mask="url(#mask0)"><path d=" M 0 4 C 0 1.79086 1.79086 0 4 0 L 16 0 L 16 52 C 16 56.4183 12.4183 60 8 60 C 3.58172 60 0 56.4183 0 52 L 0 4 Z" id="Rectangle 2.1" fill="#005BA4" transform="matrix(1,0,0,1,0,32)"/><g id="Subtract"><path d=" M 8 4 C 8 1.79102 9.79086 0 12 0 L 84 0 C 86.2091 0 88 1.79102 88 4 L 88 80.021 C 88 84.4393 84.4183 88 80 88 L 0 88 C 4.41828 88 8 84.418 8 80 L 8 4 Z" fill="#023F9B" transform="matrix(1,0,0,1,8,4)"/></g><path d=" M 8 4 C 8 1.79102 9.79086 0 12 0 L 84 0 C 86.2091 0 88 1.79102 88 4 L 88 80.021 C 88 84.4393 84.4183 88 80 88 L 0 88 C 4.41828 88 8 84.418 8 80 L 8 4 Z" id="Subtract_2" fill="#0078D7" transform="matrix(1,0,0,1,8,4)"/><path d=" M 8 52 C 8 56.418 4.41828 60 0 60 L 80 60 C 75.5817 60 72 56.418 72 52 L 72 4 C 72 1.5 70.2091 0 68 0 L 8 0 L 8 52 Z" id="Subtract_3" fill="#006CC9" transform="matrix(1,0,0,1,8,32)"/><g id="Group 6"><rect x="0" y="0" width="48" height="4" id="Rectangle" fill="#47A4ED" transform="matrix(1,0,0,1,32,66)"/><rect x="0" y="0" width="24" height="4" id="Rectangle_2" fill="#47A4ED" transform="matrix(1,0,0,1,32,74)"/><g id="Group 5"><path d=" M 0 2 C 0 0.895431 0.895431 0 2 0 L 16 0 L 16 20 L 0 20 L 0 2 Z" id="Rectangle_3" fill="#83C7FC" transform="matrix(1,0,0,1,48,32)"/><path d=" M 0 2 C 0 0.895431 0.895431 0 2 0 L 16 0 L 16 12 L 2 12 C 0.895431 12 0 11.1046 0 10 L 0 2 Z" id="Rectangle_4" fill="#83C7FC" transform="matrix(1,0,0,1,32,40)"/><g id="Rectangle_5" opacity="0.6"><path d=" M 0 2 C 0 0.895431 0.895431 0 2 0 L 14 0 C 15.1046 0 16 0.895431 16 2 L 16 30 C 16 31.1046 15.1046 32 14 32 L 0 32 L 0 2 Z" fill="#0049B6" transform="matrix(1,0,0,1,64,20)"/></g><path d=" M 0 2 C 0 0.895431 0.895431 0 2 0 L 14 0 C 15.1046 0 16 0.895431 16 2 L 16 30 C 16 31.1046 15.1046 32 14 32 L 0 32 L 0 2 Z" id="Rectangle_6" fill="#AEDAFC" transform="matrix(1,0,0,1,64,20)"/><path d=" M 0 0 L 16 0 L 16 18 C 16 19.1046 15.1046 20 14 20 L 0 20 L 0 0 Z" id="Rectangle_7" fill="#9BD3FF" transform="matrix(1,0,0,1,64,32)"/></g></g><path d=" M 20 0 C 17.7909 0 16 1.79102 16 4 L 16 28 L 4 28 C 1.79086 28 0 29.791 0 32 L 0 80 C 0 84.418 3.58172 88 8 88 L 88 88 C 92.4183 88 96 84.4512 96 80.0322 L 96 4 C 96 1.79102 94.2091 0 92 0 L 20 0 Z" id="Union_2" fill="url(#paint0_linear)" opacity="0.2" transform="matrix(1,0,0,1,0,4)"/></g></g></svg>