<svg version="1.1" width="96" height="96" viewBox="0 0 96 96" xmlns="http://www.w3.org/2000/svg" xmlns:xlink="http://www.w3.org/1999/xlink" fill="none" overflow="hidden"><defs><linearGradient x2="1" gradientUnits="userSpaceOnUse" id="paint0_linear" gradientTransform="matrix(5.8783e-15,93,-96,5.69461e-15,96,1)"><stop offset="0" stop-color="#FFFFFF"/><stop offset="1" stop-color="#FFFFFF" stop-opacity="0"/></linearGradient></defs><g id="DevOpsIconWiki96"><mask maskUnits="userSpaceOnUse" x="0" y="0" width="96" height="96" id="mask0"><path d=" M 92 0 C 94.209 0 96 1.79102 96 4 L 96 42 C 96 44.209 94.209 46 92 46 L 70 46 L 70 92 C 70 94.209 68.209 96 66 96 L 4 96 C 1.79102 96 0 94.209 0 92 L 0 20 C 0 17.791 1.79102 16 4 16 L 38 16 L 38 4 C 38 1.79102 39.791 0 42 0 L 92 0 Z" id="Union" fill="#FFFFFF"/></mask><g mask="url(#mask0)"><path d=" M 0 4 C 0 1.79086 1.79086 0 4 0 L 66 0 C 68.2091 0 70 1.79086 70 4 L 70 76 C 70 78.2091 68.2091 80 66 80 L 4 80 C 1.79086 80 0 78.2091 0 76 L 0 4 Z" id="Rectangle" fill="#0078D7" transform="matrix(1,0,0,1,0,16)"/><g id="Union_2" transform="matrix(1,0,0,1,16,30)"><path d=" M 38 12 L 0 12 L 0 16 L 38 16 L 38 12 Z" fill="#48A6F0"/><path d=" M 38 24 L 0 24 L 0 28 L 38 28 L 38 24 Z" fill="#48A6F0"/><path d=" M 38 0 L 0 0 L 0 4 L 38 4 L 38 0 Z" fill="#48A6F0"/><path d=" M 38 36 L 0 36 L 0 40 L 38 40 L 38 36 Z" fill="#48A6F0"/><path d=" M 22 48 L 0 48 L 0 52 L 22 52 L 22 48 Z" fill="#48A6F0"/></g><g id="Union_3" opacity="0.75"><path d=" M 54 0 C 56.2091 0 58 1.79102 58 4 L 58 42 C 58 44.209 56.2091 46 54 46 L 32 46 L 16 62 L 16 46 L 4 46 C 1.79089 46 0 44.209 0 42 L 0 4 C 0 1.79102 1.79089 0 4 0 L 54 0 Z" fill="#0039A8" transform="matrix(1,0,0,1,38,0)"/></g><path d=" M 4 0 C 1.79089 0 0 1.79102 0 4 L 0 42 C 0 44.209 1.79089 46 4 46 L 26 46 L 42 62 L 42 46 L 54 46 C 56.2091 46 58 44.209 58 42 L 58 4 C 58 1.79102 56.2091 0 54 0 L 4 0 Z" id="Union_4" fill="#96D1FF" fill-rule="evenodd" clip-rule="evenodd" transform="matrix(-1,0,0,1,96,0)"/><path d=" M 32 30 L 32 4 C 32 1.79102 30.2092 0 28 0 L 0 0 L 0 26 C 0 28.209 1.79102 30 4 30 L 16 30 L 16 46 L 32 30 Z" id="Intersect" fill="#6ABEFF" opacity="0.5" transform="matrix(1,0,0,1,38,16)"/><rect x="0" y="0" width="16" height="4" id="Rectangle 2" fill="#96D1FF" transform="matrix(1,0,0,1,38,30)"/><path d=" M 0 0 L 16 0 L 16 4 L 4 4 C 1.79086 4 0 2.20914 0 0 Z" id="Rectangle 3" fill="#96D1FF" transform="matrix(1,0,0,1,38,42)"/><path d=" M 92 0 C 94.209 0 96 1.79102 96 4 L 96 42 C 96 44.209 94.209 46 92 46 L 70 46 L 70 92 C 70 94.209 68.209 96 66 96 L 4 96 C 1.79102 96 0 94.209 0 92 L 0 20 C 0 17.791 1.79102 16 4 16 L 38 16 L 38 4 C 38 1.79102 39.791 0 42 0 L 92 0 Z" id="Union_5" fill="url(#paint0_linear)" opacity="0.2"/></g></g></svg>