<?xml version="1.0" encoding="utf-8"?>
<!-- Generator: Adobe Illustrator 21.0.0, SVG Export Plug-In . SVG Version: 6.00 Build 0)  -->
<!DOCTYPE svg PUBLIC "-//W3C//DTD SVG 1.1//EN" "http://www.w3.org/Graphics/SVG/1.1/DTD/svg11.dtd">
<svg version="1.1" id="Layer_1" xmlns="http://www.w3.org/2000/svg" xmlns:xlink="http://www.w3.org/1999/xlink" x="0px" y="0px"
	 viewBox="0 0 320 320" style="enable-background:new 0 0 320 320;" xml:space="preserve">
<style type="text/css">
	.st0{clip-path:url(#SVGID_2_);fill:#478AA9;}
	.st1{clip-path:url(#SVGID_2_);}
	.st2{fill:none;}
	.st3{fill:#397A91;}
	.st4{clip-path:url(#SVGID_4_);fill:#7CABC2;}
	.st5{clip-path:url(#SVGID_4_);}
	.st6{fill:#9CC7D8;}
	.st7{clip-path:url(#SVGID_6_);fill:#7DB912;}
	.st8{clip-path:url(#SVGID_6_);}
	.st9{fill:#B7C932;}
	.st10{fill:#FFFFFF;}
	.st11{fill:none;stroke:#ACACAC;stroke-width:6;stroke-miterlimit:10;}
	.st12{fill:#E3E3E3;}
	.st13{fill-rule:evenodd;clip-rule:evenodd;fill:#2E2E2E;}
	.st14{fill-rule:evenodd;clip-rule:evenodd;fill:#909090;}
	.st15{fill:#007134;}
	.st16{fill:#00890B;}
	.st17{fill:#395B71;}
	.st18{clip-path:url(#SVGID_8_);fill:#7CABC2;}
	.st19{clip-path:url(#SVGID_8_);}
	.st20{fill:#E0D39D;}
	.st21{clip-path:url(#SVGID_10_);fill:#478AA9;}
	.st22{clip-path:url(#SVGID_10_);}
	.st23{fill:none;stroke:#FFFFFF;stroke-width:4;stroke-miterlimit:10;}
	.st24{fill:none;stroke:#FFFFFF;stroke-width:4;stroke-miterlimit:10;stroke-dasharray:3.7248,3.7248;}
	.st25{fill:none;stroke:#FFFFFF;stroke-width:4;stroke-miterlimit:10;stroke-dasharray:3.9352,3.9352;}
	.st26{fill:none;stroke:#FFFFFF;stroke-width:4;stroke-miterlimit:10;stroke-dasharray:4.029,4.029;}
	.st27{clip-path:url(#SVGID_10_);fill:none;stroke:#FFFFFF;stroke-width:4;stroke-miterlimit:10;stroke-dasharray:4,4;}
	.st28{fill:#5199AD;}
	.st29{fill:#ECEDF0;}
	.st30{fill:#D9DCE1;}
	.st31{fill:#C5CAD1;}
	.st32{fill:#B2B9C2;}
	.st33{fill:#9FA7B3;}
	.st34{fill:#8C96A4;}
	.st35{fill:#798495;}
	.st36{fill:#667386;}
	.st37{fill:#526176;}
	.st38{fill:#3F5067;}
	.st39{fill:#2C3E58;}
	.st40{fill:#E8F3FA;}
	.st41{fill:#D1E7F6;}
	.st42{fill:#B9DBF1;}
	.st43{fill:#A2CFEC;}
	.st44{fill:#8BC3E8;}
	.st45{fill:#74B6E3;}
	.st46{fill:#5DAADF;}
	.st47{fill:#469EDA;}
	.st48{fill:#2E92D5;}
	.st49{fill:#1786D1;}
	.st50{fill:#007ACC;}
	.st51{fill:#9ECDEC;}
	.st52{fill:#B2D7F0;}
	.st53{fill:#C5E1F3;}
	.st54{fill:#D8EBF7;}
	.st55{fill:#ECF5FB;}
	.st56{fill:#7DB0D3;}
	.st57{fill:#709DBF;}
	.st58{fill:#628AAA;}
	.st59{fill:#557796;}
	.st60{fill:#476481;}
	.st61{fill:#3A516D;}
	.st62{fill:#0078d4;}
	.st63{fill:#478AA9;}
	.st64{fill:#334D63;}
	.st65{fill:#447995;}
	.st66{fill:#2C3E50;}
	.st67{fill:#619BB5;}
	.st68{fill:#7CABC2;}
	.st69{fill:#96BCCE;}
	.st70{fill:#B0CDDA;}
	.st71{fill:#CADEE6;}
	.st72{fill:#E5EEF3;}
	.st73{clip-path:url(#SVGID_12_);fill:#7DB0D3;}
	.st74{clip-path:url(#SVGID_12_);fill:#FFFFFF;}
	.st75{clip-path:url(#SVGID_12_);fill:#DEECF9;}
	.st76{clip-path:url(#SVGID_12_);}
	.st77{fill:#ACACAC;}
	.st78{clip-path:url(#SVGID_12_);fill-rule:evenodd;clip-rule:evenodd;fill:#2E2E2E;}
	.st79{clip-path:url(#SVGID_12_);fill:none;}
	.st80{clip-path:url(#SVGID_12_);fill-rule:evenodd;clip-rule:evenodd;fill:#909090;}
</style>
<g>
	<defs>
		<circle id="SVGID_11_" cx="162" cy="160.014" r="156"/>
	</defs>
	<clipPath id="SVGID_2_">
		<use xlink:href="#SVGID_11_"  style="overflow:visible;"/>
	</clipPath>
	<circle style="clip-path:url(#SVGID_2_);fill:#7DB0D3;" cx="161.5" cy="160.514" r="160.5"/>
	<rect x="121" y="107.014" style="clip-path:url(#SVGID_2_);fill:#FFFFFF;" width="239" height="132"/>
	<polygon style="clip-path:url(#SVGID_2_);fill:#DEECF9;" points="201.826,102.014 120,102.014 120,239.014 338,239.014 
		338,237.735 	"/>
	<g class="st1">
		<rect x="140" y="123.014" class="st77" width="6" height="4"/>
		<rect x="151" y="123.014" class="st77" width="171" height="4"/>
	</g>
	<g class="st1">
		<rect x="140" y="134.014" class="st77" width="6" height="4"/>
		<rect x="151" y="134.014" class="st77" width="171" height="4"/>
	</g>
	<g class="st1">
		<rect x="156" y="145.014" class="st77" width="6" height="4"/>
		<rect x="166" y="145.014" class="st77" width="156" height="4"/>
	</g>
	<g class="st1">
		<rect x="156" y="156.014" class="st77" width="6" height="4"/>
		<rect x="166" y="156.014" class="st77" width="156" height="4"/>
	</g>
	<g class="st1">
		<rect x="177" y="167.014" class="st77" width="6" height="4"/>
		<rect x="188" y="167.014" class="st77" width="134" height="4"/>
	</g>
	<g class="st1">
		<rect x="177" y="178.014" class="st77" width="6" height="4"/>
		<rect x="188" y="178.014" class="st77" width="134" height="4"/>
	</g>
	<g class="st1">
		<rect x="177" y="189.014" class="st77" width="6" height="4"/>
		<rect x="188" y="189.014" class="st77" width="134" height="4"/>
	</g>
	<g class="st1">
		<rect x="193" y="200.014" class="st77" width="6" height="4"/>
		<rect x="203" y="200.014" class="st77" width="119" height="4"/>
	</g>
	<g class="st1">
		<rect x="192" y="211.014" class="st77" width="6" height="4"/>
		<rect x="202" y="211.014" class="st77" width="118" height="4"/>
	</g>
	<path style="clip-path:url(#SVGID_2_);fill-rule:evenodd;clip-rule:evenodd;fill:#2E2E2E;" d="M118,81.014v163h247v-163H118z
		 M360,238.014H125v-127h235V238.014z"/>
	<circle style="clip-path:url(#SVGID_2_);fill:#FFFFFF;" cx="130" cy="167.014" r="11"/>
	<g class="st1">
		<path class="st62" d="M113.979,145.014l-53.805,53.805l35.021,35.021L149,180.035v-35.021H113.979z M128.605,171.772
			c-3.715,0-6.726-3.011-6.726-6.726c0-3.715,3.011-6.726,6.726-6.726c3.715,0,6.726,3.011,6.726,6.726
			C135.33,168.76,132.319,171.772,128.605,171.772z"/>
	</g>
	<circle style="clip-path:url(#SVGID_2_);fill:none;" cx="161.5" cy="160.514" r="160.5"/>
	
		<rect x="126" y="91.014" style="clip-path:url(#SVGID_2_);fill-rule:evenodd;clip-rule:evenodd;fill:#909090;" width="11" height="10"/>
	
		<rect x="260" y="91.014" style="clip-path:url(#SVGID_2_);fill-rule:evenodd;clip-rule:evenodd;fill:#909090;" width="76" height="10"/>
</g>
</svg>
